HIERARCHY
ROOT hips
{
  OFFSET 0 10.074487846421558 1.314567655973056
  CHANNELS 6 Xposition Yposition Zposition Yrotation Xrotation Zrotation
  JOINT spine
  {
    OFFSET -7.042773748992335e-31 0.5690686926897363 0
    CHANNELS 3 Yrotation Xrotation Zrotation
    JOINT chest
    {
      OFFSET 0 1.2435964857087873 0
      CHANNELS 3 Yrotation Xrotation Zrotation
      JOINT upperChest
      {
        OFFSET 0 1.194994586872362 0
        CHANNELS 3 Yrotation Xrotation Zrotation
        JOINT neck
        {
          OFFSET 0 1.515103653293861 0
          CHANNELS 3 Yrotation Xrotation Zrotation
          JOINT head
          {
            OFFSET 0 0.8111851616465653 0
            CHANNELS 3 Yrotation Xrotation Zrotation
            JOINT leftEye
            {
              OFFSET 0.27141371691966987 0.7490044407698551 0.18219031050045686
              CHANNELS 3 Yrotation Xrotation Zrotation
              End Site
              {
                OFFSET 0.27141371691966987 0.7490044407698551 0.18219031050045686
              }
            }
            JOINT rightEye
            {
              OFFSET -0.2714136877644943 0.7490044019380786 0.18219040411850668
              CHANNELS 3 Yrotation Xrotation Zrotation
              End Site
              {
                OFFSET -0.2714136877644943 0.7490044019380786 0.18219040411850668
              }
            }
          }
        }
        JOINT leftShoulder
        {
          OFFSET 0.4137993136083964 1.1593397335613034 0
          CHANNELS 3 Yrotation Xrotation Zrotation
          JOINT leftUpperArm
          {
            OFFSET 1.0096991868951026 0 0
            CHANNELS 3 Yrotation Xrotation Zrotation
            JOINT leftLowerArm
            {
              OFFSET 2.418380967671622 0 0
              CHANNELS 3 Yrotation Xrotation Zrotation
              JOINT leftHand
              {
                OFFSET 2.361538296260114 0 0
                CHANNELS 3 Yrotation Xrotation Zrotation
                JOINT leftIndexProximal
                {
                  OFFSET 0.7243699271447109 0.08118285989887508 0.2022042461579805
                  CHANNELS 3 Yrotation Xrotation Zrotation
                  JOINT leftIndexIntermediate
                  {
                    OFFSET 0.36553107045252053 -0.010567764853200323 -0.014102670024158437
                    CHANNELS 3 Yrotation Xrotation Zrotation
                    JOINT leftIndexDistal
                    {
                      OFFSET 0.22505120770060527 -0.007821041598631284 -0.007511611613336286
                      CHANNELS 3 Yrotation Xrotation Zrotation
                      End Site
                      {
                        OFFSET 0.22505120770060527 -0.007821041598631284 -0.007511611613336286
                      }
                    }
                  }
                }
                JOINT leftLittleProximal
                {
                  OFFSET 0.6721063881632002 0.08118279568569564 -0.3209324945517917
                  CHANNELS 3 Yrotation Xrotation Zrotation
                  JOINT leftLittleIntermediate
                  {
                    OFFSET 0.34587329423120616 5.3042709780015684e-8 -5.929537746918179e-8
                    CHANNELS 3 Yrotation Xrotation Zrotation
                    JOINT leftLittleDistal
                    {
                      OFFSET 0.1992782500022232 0.0030983716482184676 0.0038310952896712935
                      CHANNELS 3 Yrotation Xrotation Zrotation
                      End Site
                      {
                        OFFSET 0.1992782500022232 0.0030983716482184676 0.0038310952896712935
                      }
                    }
                  }
                }
                JOINT leftMiddleProximal
                {
                  OFFSET 0.7301229696860206 0.08118412848995638 0.022516891543707507
                  CHANNELS 3 Yrotation Xrotation Zrotation
                  JOINT leftMiddleIntermediate
                  {
                    OFFSET 0.4076277831942017 -0.000001240188283180288 -1.6203245635504349e-7
                    CHANNELS 3 Yrotation Xrotation Zrotation
                    JOINT leftMiddleDistal
                    {
                      OFFSET 0.2514739255593972 0.0000013850839168938478 -1.8644847207816007e-8
                      CHANNELS 3 Yrotation Xrotation Zrotation
                      End Site
                      {
                        OFFSET 0.2514739255593972 0.0000013850839168938478 -1.8644847207816007e-8
                      }
                    }
                  }
                }
                JOINT leftRingProximal
                {
                  OFFSET 0.7218060861525873 0.08118280646416753 -0.1494689818508163
                  CHANNELS 3 Yrotation Xrotation Zrotation
                  JOINT leftRingIntermediate
                  {
                    OFFSET 0.3781267508900358 0.000001373626195677602 -1.4143108284514483e-7
                    CHANNELS 3 Yrotation Xrotation Zrotation
                    JOINT leftRingDistal
                    {
                      OFFSET 0.21814333268795483 -0.0027137626495670197 -0.004991775417842292
                      CHANNELS 3 Yrotation Xrotation Zrotation
                      End Site
                      {
                        OFFSET 0.21814333268795483 -0.0027137626495670197 -0.004991775417842292
                      }
                    }
                  }
                }
                JOINT leftThumbProximal
                {
                  OFFSET 0.10743676110519984 -0.16423092885053192 -0.07708859146227388
                  CHANNELS 3 Yrotation Xrotation Zrotation
                  JOINT leftThumbIntermediate
                  {
                    OFFSET 0.40350402100066307 -0.01735099334274981 0.315629965828783
                    CHANNELS 3 Yrotation Xrotation Zrotation
                    JOINT leftThumbDistal
                    {
                      OFFSET 0.2320014489535681 -0.01842351809041043 0.21271298411519196
                      CHANNELS 3 Yrotation Xrotation Zrotation
                      End Site
                      {
                        OFFSET 0.2320014489535681 -0.01842351809041043 0.21271298411519196
                      }
                    }
                  }
                }
              }
            }
          }
        }
        JOINT rightShoulder
        {
          OFFSET -0.41379931360839656 1.1593397335613034 0
          CHANNELS 3 Yrotation Xrotation Zrotation
          JOINT rightUpperArm
          {
            OFFSET -1.0096991868951024 0 0
            CHANNELS 3 Yrotation Xrotation Zrotation
            JOINT rightLowerArm
            {
              OFFSET -2.4183809676716232 0 0
              CHANNELS 3 Yrotation Xrotation Zrotation
              JOINT rightHand
              {
                OFFSET -2.3615382962601132 0 0
                CHANNELS 3 Yrotation Xrotation Zrotation
                JOINT rightIndexProximal
                {
                  OFFSET -0.7243699271447109 0.08118285989887508 0.2022042461579805
                  CHANNELS 3 Yrotation Xrotation Zrotation
                  JOINT rightIndexIntermediate
                  {
                    OFFSET -0.36553107045252053 -0.010567764853200323 -0.014102670024158437
                    CHANNELS 3 Yrotation Xrotation Zrotation
                    JOINT rightIndexDistal
                    {
                      OFFSET -0.22505120770060527 -0.007821041598631284 -0.007511611613336286
                      CHANNELS 3 Yrotation Xrotation Zrotation
                      End Site
                      {
                        OFFSET -0.22505120770060527 -0.007821041598631284 -0.007511611613336286
                      }
                    }
                  }
                }
                JOINT rightLittleProximal
                {
                  OFFSET -0.6721063881632002 0.08118279568569564 -0.3209324945517917
                  CHANNELS 3 Yrotation Xrotation Zrotation
                  JOINT rightLittleIntermediate
                  {
                    OFFSET -0.34587329423120616 5.3042709780015684e-8 -5.929537746918179e-8
                    CHANNELS 3 Yrotation Xrotation Zrotation
                    JOINT rightLittleDistal
                    {
                      OFFSET -0.1992782500022232 0.0030983716482184676 0.0038310952896712935
                      CHANNELS 3 Yrotation Xrotation Zrotation
                      End Site
                      {
                        OFFSET -0.1992782500022232 0.0030983716482184676 0.0038310952896712935
                      }
                    }
                  }
                }
                JOINT rightMiddleProximal
                {
                  OFFSET -0.7301229696860206 0.08118412848995638 0.022516891543707507
                  CHANNELS 3 Yrotation Xrotation Zrotation
                  JOINT rightMiddleIntermediate
                  {
                    OFFSET -0.4076277831942017 -0.000001240188283180288 -1.6203245635504349e-7
                    CHANNELS 3 Yrotation Xrotation Zrotation
                    JOINT rightMiddleDistal
                    {
                      OFFSET -0.2514739255593972 0.0000013850839168938478 -1.8644847207816007e-8
                      CHANNELS 3 Yrotation Xrotation Zrotation
                      End Site
                      {
                        OFFSET -0.2514739255593972 0.0000013850839168938478 -1.8644847207816007e-8
                      }
                    }
                  }
                }
                JOINT rightRingProximal
                {
                  OFFSET -0.7218060861525873 0.08118280646416753 -0.1494689818508163
                  CHANNELS 3 Yrotation Xrotation Zrotation
                  JOINT rightRingIntermediate
                  {
                    OFFSET -0.3781267508900358 0.000001373626195677602 -1.4143108284514483e-7
                    CHANNELS 3 Yrotation Xrotation Zrotation
                    JOINT rightRingDistal
                    {
                      OFFSET -0.21814333268795483 -0.0027137626495670197 -0.004991775417842292
                      CHANNELS 3 Yrotation Xrotation Zrotation
                      End Site
                      {
                        OFFSET -0.21814333268795483 -0.0027137626495670197 -0.004991775417842292
                      }
                    }
                  }
                }
                JOINT rightThumbProximal
                {
                  OFFSET -0.10743676110519984 -0.16423092885053192 -0.07708859146227388
                  CHANNELS 3 Yrotation Xrotation Zrotation
                  JOINT rightThumbIntermediate
                  {
                    OFFSET -0.40350402100066307 -0.01735099334274981 0.315629965828783
                    CHANNELS 3 Yrotation Xrotation Zrotation
                    JOINT rightThumbDistal
                    {
                      OFFSET -0.2320014489535681 -0.01842351809041043 0.21271298411519196
                      CHANNELS 3 Yrotation Xrotation Zrotation
                      End Site
                      {
                        OFFSET -0.2320014489535681 -0.01842351809041043 0.21271298411519196
                      }
                    }
                  }
                }
              }
            }
          }
        }
      }
    }
  }
  JOINT leftUpperLeg
  {
    OFFSET 0.8487163290887698 -0.43932186100277326 0
    CHANNELS 3 Yrotation Xrotation Zrotation
    JOINT leftLowerLeg
    {
      OFFSET 0 -3.882816707004296 0
      CHANNELS 3 Yrotation Xrotation Zrotation
      JOINT leftFoot
      {
        OFFSET 0 -4.570431027442807 0.004629272230691511
        CHANNELS 3 Yrotation Xrotation Zrotation
        JOINT leftToes
        {
          OFFSET 0 -0.698875637876343 1.214565366696912
          CHANNELS 3 Yrotation Xrotation Zrotation
          End Site
          {
            OFFSET 0 -0.698875637876343 1.214565366696912
          }
        }
      }
    }
  }
  JOINT rightUpperLeg
  {
    OFFSET -0.8487163290887698 -0.43932186100277326 0
    CHANNELS 3 Yrotation Xrotation Zrotation
    JOINT rightLowerLeg
    {
      OFFSET 0 -3.882816707004296 0
      CHANNELS 3 Yrotation Xrotation Zrotation
      JOINT rightFoot
      {
        OFFSET 0 -4.570431027442807 0.004629272230691511
        CHANNELS 3 Yrotation Xrotation Zrotation
        JOINT rightToes
        {
          OFFSET 0 -0.698875637876343 1.214565366696912
          CHANNELS 3 Yrotation Xrotation Zrotation
          End Site
          {
            OFFSET 0 -0.698875637876343 1.214565366696912
          }
        }
      }
    }
  }
}
MOTION
Frames: 4
Frame Time: 0.03333333333333333
0.5028089880943298 -0.32360665135319877 1.2860268354415894 -20.39437359498499 1.3193446844933316 -1.5380424150839145 3.717982161001208 8.302523160103252 0.6103006705506756 2.3375505841143416 3.170465212154661 2.652142875468322 0 0 0 0.07885595429008603 5.900195378228205 0.18634591987631685 3.7462455128498204 -28.87730343894271 -2.1814752522880148 0 0 0 0 0 0 -8.004610598856528 -0.1533573800099028 -26.433750611276025 33.20424248949784 -11.983081794022274 -23.408251526280328 -89.93992774337606 -7.669228821289576 9.12413431177324 143.15917808442853 -84.54615635788551 -153.74588006946743 -26.747372706005493 -2.9451832810290015 1.6339008742341048 5.033496757566642 4.134863956707562 -78.79447605672418 4.856667551136774 3.476910333709202 -71.18434045203047 26.388072271129136 6.64972444852825 -50.85932240991978 5.060160299095586 4.279811728334571 -80.43995305558536 4.850759875325774 3.4597879174213686 -70.98208444067453 -12.371312807707167 -1.12598209562611 3.0854536473034013 5.033566999179819 4.1352919576928295 -78.79907054589884 4.856992982146431 3.4779119468298356 -71.19596523639893 6.719094281283867 2.585114074817571 -53.83474969897721 5.033758945172205 4.136161656407 -78.80892350884857 4.914944359385775 3.6586566861332526 -73.31431351316103 -21.461699280569487 -13.053291365110063 3.298428592985286 42.411061201656345 11.575855910339127 10.948521640619841 58.47899209735193 4.593615258079683 28.174276416520062 9.16933099079735 0.3206231060296453 14.11133837875584 -11.606086220833332 -24.155285042234574 35.85753891795987 84.42461119290803 -7.699765061770845 -8.316128685385676 -79.64947765083731 -85.12697179849143 99.51540422735955 27.777019326421335 -1.9873910286529166 -3.777104681773342 -3.8535094630078452 3.174779967099622 78.96141265104838 -3.689008338867898 2.583250312595142 69.99442979462894 -25.20051348281799 5.297288190277803 49.78806886542394 -3.871890883277396 3.276101563912205 80.46432896948653 -3.6898209965791886 2.5854802895665605 70.0292123449302 6.383846011893104 -0.2526265174111021 -5.881504637675413 -3.8535526467078056 3.1751397445964744 78.96662967081805 -3.689324655630848 2.584122688862807 70.00821029002306 -8.181075451310907 6.3792718900128484 51.0942834517569 -3.8663567514223978 3.243766777946314 79.98588110970776 -3.6788490552575634 2.5556452429995073 69.56514733073263 20.51112294782814 -12.45058252538983 -3.5128343623027924 -69.81327031795392 29.103032118893015 -20.943171086743153 -65.81225941779412 -1.6621707746036476 -39.06255702656172 10.297387993540498 -26.068750250050318 2.509916008980804 3.1078287438484424 21.261820357935786 2.7643910186069167 -10.249071295797632 3.059597248824434 -2.372951510719773 -0.000012519834177214322 -4.326587381499974 0.000001503311146726765 -12.30374892858442 -8.144858516853505 -5.138138285472749 -3.910969208204543 22.17067748363773 -4.155867706398816 3.6711327139323155 -12.977087857736556 9.200600597204822 0.000007882787588259162 -8.333157792060849 -0.000002979859646556721
0.508374035358429 -0.32189289860661674 1.2810547351837158 -20.749721178057516 1.4084997597845412 -1.6526776768616294 4.112229058516908 8.40449979148178 0.6392026006228042 2.5547868281865367 3.1615599944854282 2.678278252538011 0 0 0 0.03726517566824454 5.845016253202892 0.25173891153062355 3.3658865028962333 -28.676743922320732 -1.8711073224529158 0 0 0 0 0 0 -8.244751974075694 -0.18393021326436204 -26.243114694692494 32.17151086373279 -11.292450553501592 -23.674842206000616 -89.28912359965808 -7.676840922864939 9.028998218598689 135.59063802975518 -85.64661308764268 -145.57798843478798 -26.746706071763448 -2.946018093970417 1.6339311966828076 5.033485372043084 4.134836136651519 -78.7939964398594 4.856671249911645 3.4769212393971434 -71.18432367155786 26.388049195050858 6.649754962773866 -50.859320239620736 5.060116076584997 4.279815581059348 -80.43994433737612 4.850768824150806 3.4597759427653707 -70.98205956882016 -12.371066611543615 -1.126041764582101 3.085201152018956 5.033574673488723 4.135289389686229 -78.79908800495399 4.857026936795253 3.4778888524077254 -71.19598091375441 6.718919253686674 2.58479123331495 -53.83478844913996 5.033767045837996 4.13614924436155 -78.80893323518944 4.914959275887103 3.658653691822862 -73.31431351316103 -21.460854325067242 -13.053737463280195 3.2982065639562292 42.411029301043044 11.575839351838702 10.948849481815591 58.47897504144743 4.593610975454856 28.174284074490796 9.67625501556407 0.2924181830035072 14.138786181335512 -10.2396859190885 -23.31774571139003 35.66781880228123 84.52462999082125 -7.6998012465162615 -8.330804813719222 -55.0572388625118 -84.32898321999357 73.9537945576629 27.776342777620627 -1.9882732943194108 -3.7771194942075543 -3.853494729544467 3.174750039090081 78.96092498023573 -3.6889931936666387 2.5832494579529985 69.99444819514268 -25.200487469932355 5.297286904124262 49.78806403196173 -3.8719171374512915 3.2761073363179447 80.46430225880522 -3.6898171586551203 2.5854950321695207 70.02921993852347 6.38391884829332 -0.2527002628268376 -5.881008850089533 -3.853580177473947 3.1751354691649976 78.96659264195131 -3.689321244144485 2.584136149485887 70.00819232716269 -8.181082743115756 6.379280051396365 51.09428612587456 -3.8663388342752736 3.2437853773226113 79.98586307778251 -3.6788341301617624 2.5556478068705064 69.56515373746876 20.510498232253088 -12.450994337971734 -3.5120613264626477 -69.81328046007023 29.103049707435243 -20.943405385884088 -65.81217717126944 -1.662389325907474 -39.062806273894935 10.171689097662636 -26.13081890788746 2.577924017899745 3.1307646925928014 21.160611516433626 2.9394920782189744 -9.853226617716228 3.178640260059405 -2.311786400078085 -0.000023275976543177126 -4.310024965428611 8.689171350288697e-7 -12.34553479280109 -8.326201283873825 -5.100839981021892 -3.4458322039744647 22.118864875382567 -3.873104571399559 3.66134061600871 -12.701660207001636 9.21432087126266 -0.00004224926533700847 -8.40372478056051 0.000005639423138351377
0.5106375813484192 -0.32235352330144096 1.273848056793213 -20.708458314189787 1.7358435997530288 -1.7863315862451088 4.350663843626454 8.293123750125458 0.46199769737440477 2.7056567822000126 2.9691498859836662 2.716442115800983 0 0 0 0.007835324916947028 5.851968004833944 0.35715905238693985 2.6837477559297085 -27.98500423415178 -0.939395195515316 0 0 0 0 0 0 -9.122087097237465 -0.3275013499466503 -26.26727488324232 30.508141685344963 -10.351028680482832 -24.625710537503185 -90.37028501877087 -7.663596505143842 9.187012190942164 111.3613735730592 -86.87838930543953 -119.98271862622626 -26.744915599221628 -2.9482087863098783 1.6340388747201315 5.03348221311109 4.134726568440297 -78.7927130098328 4.85666997149605 3.4769250884635055 -71.18432477504136 26.38795384637168 6.649803957482058 -50.85933574333129 5.060117782233697 4.27979931399931 -80.43995419312306 4.850779903648134 3.4597827854259227 -70.98205956882016 -12.370376196811687 -1.1261850127783932 3.0844549350829844 5.0335979968365 4.135299233711578 -78.79910563859372 4.857000652644068 3.47791216066708 -71.19592895381356 6.718256041347223 2.58352422543168 -53.83496828846992 5.033741891138303 4.136150528366243 -78.80894247218204 4.914962259187289 3.6586613914781725 -73.31429515816275 -21.458462444121068 -13.05545788478661 3.2974206446232754 42.410887716087956 11.575927373352208 10.950163383368873 58.47894159147501 4.593547592610432 28.174241039258938 10.197017324192187 0.2620037947065685 14.228387404565995 -5.685439659376312 -22.609277281708476 36.25559882905622 83.05426375028699 -7.695330730758872 -8.115250533445383 -33.170603904418385 -83.16011700847208 52.2692090851151 27.77463867400488 -1.9906275000758098 -3.777291169308051 -3.853463982892394 3.1746679508397904 78.95962228679518 -3.689007912432234 2.583261850264132 69.99442220051691 -25.20048126330895 5.297292477456294 49.78810048535974 -3.8719457202967424 3.276106053561111 80.46426654789666 -3.6898229223257566 2.585524090054117 70.02920314483426 6.384138719263418 -0.25291229423975276 -5.879736482961687 -3.8535750585559394 3.175126063215811 78.96661157602614 -3.689337875140259 2.584136790467942 70.00819232716269 -8.181071199559664 6.379264587722445 51.09428828405583 -3.866352058836319 3.243787087610104 79.98588953086335 -3.678818132860616 2.5556478068705064 69.56517214138987 20.50867272235333 -12.452591757292396 -3.510011533354911 -69.81335328924465 29.10320605016495 -20.94408349881369 -65.81189319101779 -1.6628594194876352 -39.06356777987317 9.657747079762995 -26.46691182618917 2.4708959251855727 3.2353310413427465 20.97465545400423 3.4203074882913693 -9.549514749914616 3.597849854650555 -2.0493638124482674 0.0000015941535999269182 -4.4406081663064265 8.269443890279411e-7 -12.152072091591661 -8.627076297200382 -4.8064464417766795 -3.6141656673857154 22.114472602999175 -3.943402762003388 3.719185481407855 -12.794677705598644 8.88693993129152 0.0000020174012250471383 -8.318678005127683 -0.0000017777749367839608
0.5097705125808716 -0.32271591954167533 1.2736989259719849 -20.47519095072725 1.8195220009712911 -1.8068083446239307 4.27705916032422 8.256277191098174 0.4178831645850337 2.669106677359868 2.9635557224911633 2.710033743082664 0 0 0 0.006023684454809387 5.807340117071168 0.37316030549547624 2.552144081930062 -27.764566921988916 -0.7563323621851834 0 0 0 0 0 0 -9.497727080882681 -0.40040557018986633 -26.472049928343186 30.389202952633724 -10.442629669977626 -24.872433413277328 -91.33227619029115 -7.649335138291146 9.327353644142187 95.84031415054187 -87.1711838072684 -103.46411678381097 -26.744372807785776 -2.9488463320224287 1.6341333078200162 5.0334648586865 4.134688048369638 -78.79235105956016 4.85664198282522 3.4769205978860844 -71.18434965190575 26.387940010224344 6.649794502362552 -50.859328239667164 5.0601228991797464 4.279811300254042 -80.43995362435423 4.850771380957914 3.4597643957758013 -70.98210122607202 -12.370149082855601 -1.1262426536343275 3.084221383006409 5.033591175228673 4.135290673689529 -78.79906988078424 4.857023953824026 3.4779095946201504 -71.19593005664223 6.717982278824858 2.583021054860836 -53.834998758868394 5.033765340434689 4.136124420271233 -78.80890671431713 4.9149906806395185 3.6586613914781725 -73.31432170811162 -21.45767027285194 -13.056081025638347 3.2971306298086596 42.41076951807911 11.575907328846698 10.950693786246966 58.47897391207839 4.593551875234878 28.17424718714882 10.358432523399662 0.24132127534939993 14.43238598705749 -4.679589468756366 -22.732863283677652 36.53517437003992 82.59679054052079 -7.692839186063498 -8.048184535148694 -31.74326395844804 -83.6404447752935 50.9050873293227 27.774157640369467 -1.9912765464160955 -3.7773765087493714 -3.8534744174366296 3.1746087361424586 78.95915224049101 -3.689010044610551 2.583248603310856 69.99444819514268 -25.200476608340978 5.297328061038906 49.78811055715055 -3.871919270499526 3.2761047708042783 80.46427554812483 -3.689800527650442 2.585482639836586 70.02922797103668 6.384240359747957 -0.25296426821692125 -5.879349254854929 -3.85359340134518 3.1751228566422443 78.96661157602614 -3.6893325514481856 2.5841506784125463 70.00819992106973 -8.181084805163323 6.379262010443504 51.0942834517569 -3.8663367012815164 3.243785163536675 79.9858714989382 -3.678839247337522 2.555649516117842 69.56515373746876 20.50809174516725 -12.453278991618518 -3.509412942086179 -69.81337125383479 29.103239273025608 -20.944253804667746 -65.81183212679528 -1.6629908492594627 -39.063778581058195 9.577967996609607 -26.582281720339136 2.4312387410021064 3.255156831918484 20.954518941099117 3.4539893547449805 -9.714024602439302 3.714593014647742 -1.9966507505143956 0.0000033960847959594575 -4.498749393220819 -0.0000022014011975672103 -12.072966566016838 -8.636702346299948 -4.708358535920987 -3.967570408293104 22.09341260805703 -4.12093489132868 3.724930479307586 -12.852260627374255 8.8691449773176 0.000052354799836221066 -8.289246364875597 -0.0000017940201262883834
